<svg id="Layer_1" data-name="Layer 1" xmlns="http://www.w3.org/2000/svg" viewBox="0 0 17.26 28.62"><defs><style>.cls-1{fill:#ffe600;}.cls-2{fill:#1e1e1e;}</style></defs><path class="cls-1" d="M16.82,23H6a2.32,2.32,0,0,1-2.31-2.31V6.05A2.32,2.32,0,0,1,6,3.74h10.8A2.32,2.32,0,0,1,19.13,6V20.71A2.32,2.32,0,0,1,16.82,23Z" transform="translate(-2.79 -0.06)"/><path class="cls-2" d="M16.82.06H6A3.23,3.23,0,0,0,2.79,3.29V20.71h0v4.74A3.23,3.23,0,0,0,6,28.67h10.8a3.23,3.23,0,0,0,3.23-3.22h0V3.29A3.23,3.23,0,0,0,16.82.06ZM6,1.9h10.8a1.42,1.42,0,0,1,1.37,1.23,3.16,3.16,0,0,0-1.37-.31H6a3.16,3.16,0,0,0-1.37.31A1.42,1.42,0,0,1,6,1.9ZM18.2,25.45a1.39,1.39,0,0,1-1.38,1.38H6a1.4,1.4,0,0,1-1.38-1.38V23.62A3.18,3.18,0,0,0,6,23.94h10.8a3.18,3.18,0,0,0,1.38-.32Zm0-4.74a1.38,1.38,0,0,1-1.38,1.38H6a1.39,1.39,0,0,1-1.38-1.38V6.05A1.4,1.4,0,0,1,6,4.66h10.8A1.39,1.39,0,0,1,18.2,6.05Zm-5,3.7H9.63a.47.47,0,0,0-.46.46v.92a.47.47,0,0,0,.46.47h3.58a.47.47,0,0,0,.46-.47v-.92A.47.47,0,0,0,13.21,24.41Z" transform="translate(-2.79 -0.06)"/></svg>