<svg id="Layer_1" data-name="Layer 1" xmlns="http://www.w3.org/2000/svg" viewBox="0 0 26.76 26.76"><defs><style>.cls-1{fill:#ffe600;}.cls-2{fill:#1e1e1e;}</style></defs><path class="cls-1" d="M23.53,25.83H3.23a2.32,2.32,0,0,1-2.31-2.3V9.84a2.32,2.32,0,0,1,2.31-2.3h20.3a2.32,2.32,0,0,1,2.31,2.3V23.53a2.32,2.32,0,0,1-2.31,2.3Z"/><path class="cls-2" d="M23.53,0H3.23A3.23,3.23,0,0,0,0,3.23v20.3a3.24,3.24,0,0,0,3.23,3.23h20.3a3.24,3.24,0,0,0,3.23-3.23h0V3.23A3.23,3.23,0,0,0,23.53,0Zm1.38,23.53a1.4,1.4,0,0,1-1.38,1.38H3.23a1.4,1.4,0,0,1-1.38-1.38V9.84A1.39,1.39,0,0,1,3.23,8.46h20.3a1.4,1.4,0,0,1,1.38,1.38Zm0-16.6a3.18,3.18,0,0,0-1.38-.32H3.23a3.18,3.18,0,0,0-1.38.32V3.23A1.39,1.39,0,0,1,3.23,1.85h20.3a1.39,1.39,0,0,1,1.38,1.38Z"/><path class="cls-2" d="M17.51,2.15a2.08,2.08,0,1,0,2.08,2.08A2.08,2.08,0,0,0,17.51,2.15Zm0,3a.89.89,0,0,1,0-1.77.89.89,0,1,1,0,1.77Z"/><path class="cls-2" d="M22.09,2.15a2.08,2.08,0,1,0,2.07,2.08A2.08,2.08,0,0,0,22.09,2.15Zm0,3A.89.89,0,1,1,23,4.23.88.88,0,0,1,22.09,5.11Z"/></svg>